<?xml version="1.0" standalone="no"?>
<!DOCTYPE svg PUBLIC "-//W3C//DTD SVG 20010904//EN"
 "http://www.w3.org/TR/2001/REC-SVG-20010904/DTD/svg10.dtd">
<svg version="1.0" xmlns="http://www.w3.org/2000/svg"
 width="639.000000pt" height="639.000000pt" viewBox="0 0 639.000000 639.000000"
 preserveAspectRatio="xMidYMid meet">
<metadata>
Created by potrace 1.14, written by Peter Selinger 2001-2017
</metadata>
<g transform="translate(0.000000,639.000000) scale(0.100000,-0.100000)"
fill="#000000" stroke="none">
<path d="M2850 4990 l0 -200 -300 0 -300 0 0 100 0 100 -200 0 -200 0 0 -100
0 -100 -100 0 -100 0 0 -100 0 -100 -100 0 -100 0 0 -100 0 -100 -200 0 -200
0 0 -700 0 -700 100 0 100 0 0 -100 0 -100 100 0 100 0 0 100 0 100 100 0 100
0 0 200 0 200 200 0 200 0 0 100 0 100 100 0 100 0 0 -300 0 -300 100 0 100 0
0 -400 0 -400 100 0 100 0 0 -400 0 -400 300 0 300 0 0 400 0 400 100 0 100 0
0 400 0 400 200 0 200 0 0 100 0 100 100 0 100 0 0 200 0 200 300 0 300 0 0
100 0 100 300 0 300 0 0 100 0 100 200 0 200 0 0 100 0 100 100 0 100 0 0 200
0 200 -300 0 -300 0 0 100 0 100 -100 0 -100 0 0 100 0 100 -200 0 -200 0 0
-100 0 -100 -600 0 -600 0 0 100 0 100 -100 0 -100 0 0 100 0 100 -200 0 -200
0 0 -200z m400 -100 l0 -100 -100 0 -100 0 0 100 0 100 100 0 100 0 0 -100z
m-1000 -200 l0 -100 1200 0 1200 0 0 100 0 100 200 0 200 0 0 -100 0 -100
-200 0 -200 0 0 -100 0 -100 200 0 200 0 0 -200 0 -200 -100 0 -100 0 0 100 0
100 -500 0 -500 0 0 -200 0 -200 -900 0 -900 0 0 -100 0 -100 -200 0 -200 0 0
-100 0 -100 -100 0 -100 0 0 -200 0 -200 -100 0 -100 0 0 600 0 600 100 0 100
0 0 100 0 100 200 0 200 0 0 -100 0 -100 100 0 100 0 0 100 0 100 100 0 100 0
0 100 0 100 -200 0 -200 0 0 100 0 100 200 0 200 0 0 -100z m3400 -400 l0
-100 -200 0 -200 0 0 100 0 100 200 0 200 0 0 -100z m-1400 -400 l0 -100 -100
0 -100 0 0 100 0 100 100 0 100 0 0 -100z m400 0 l0 -100 -100 0 -100 0 0 100
0 100 100 0 100 0 0 -100z m-2000 -600 l0 -300 100 0 100 0 0 300 0 300 200 0
200 0 0 -700 0 -700 -300 0 -300 0 0 400 0 400 -100 0 -100 0 0 300 0 300 100
0 100 0 0 -300z m1200 100 l0 -200 -200 0 -200 0 0 100 0 100 100 0 100 0 0
100 0 100 100 0 100 0 0 -200z m-800 -1600 l0 -200 -100 0 -100 0 0 200 0 200
100 0 100 0 0 -200z"/>
<path d="M3650 4290 l0 -100 -600 0 -600 0 0 -100 0 -100 600 0 600 0 0 100 0
100 100 0 100 0 0 100 0 100 -100 0 -100 0 0 -100z"/>
<path d="M2050 4090 l0 -100 -300 0 -300 0 0 -200 0 -200 100 0 100 0 0 100 0
100 200 0 200 0 0 100 0 100 100 0 100 0 0 100 0 100 -100 0 -100 0 0 -100z"/>
</g>
</svg>
